<svg width="405" height="154" viewBox="0 0 405 154" fill="none" xmlns="http://www.w3.org/2000/svg">
<path d="M74.8729 123.606H0.012085V89.8111L74.8729 0.814667H110.698V91.7303H129.262V123.606H110.698V151.262H74.8729V123.606ZM74.8729 91.7303V45.1775L35.308 91.7303H74.8729Z" fill="#1E293B"/>
<path d="M142.069 76.6967C142.069 48.5731 147.13 28.8891 157.251 17.6446C167.371 6.40011 182.795 0.781968 203.52 0.79017C213.469 0.79017 221.642 2.02042 228.039 4.48093C233.851 6.57496 239.172 9.83647 243.676 14.0646C247.472 17.6889 250.688 21.8756 253.21 26.4778C255.707 31.283 257.587 36.3836 258.808 41.6591C261.589 52.9292 262.978 64.498 262.941 76.1062C262.941 102.942 258.402 122.581 249.323 135.023C240.243 147.465 224.607 153.69 202.413 153.698C189.963 153.698 179.904 151.713 172.235 147.744C164.505 143.71 157.994 137.683 153.375 130.286C149.808 124.841 147.031 117.389 145.046 107.933C142.986 97.6504 141.988 87.1833 142.069 76.6967ZM182.84 76.7951C182.84 95.659 184.501 108.523 187.822 115.388C191.144 122.253 195.971 125.702 202.302 125.735C204.312 125.757 206.305 125.38 208.168 124.626C210.031 123.873 211.725 122.756 213.153 121.343C216.221 118.415 218.476 113.789 219.92 107.465C221.363 101.142 222.085 91.2998 222.085 77.9393C222.085 58.3045 220.42 45.1038 217.09 38.3375C213.76 31.5711 208.765 28.192 202.106 28.2002C195.315 28.2002 190.394 31.649 187.343 38.5466C184.292 45.4442 182.791 58.1937 182.84 76.7951Z" fill="#1E293B"/>
<path d="M350.523 123.606H275.662V89.8112L350.523 0.814789H386.348V91.7304H404.974V123.606H386.348V151.262H350.523V123.606ZM350.523 91.7304V45.1777L310.97 91.7304H350.523Z" fill="#1E293B"/>
</svg>
