<svg width="265" height="355" viewBox="0 0 265 355" fill="none" xmlns="http://www.w3.org/2000/svg">
<path opacity="0.2" d="M229.16 132.133C196.079 154.487 153.253 184.013 141.431 254.925H138.909C150.412 184.801 191.674 154.573 224.768 132.133H229.16Z" fill="black"/>
<path d="M58.0319 354.12C37.1176 354.12 16.4371 344.684 6.36132 329.281C0.148544 319.759 -7.07304 299.817 14.4318 273.206L16.3387 274.757C1.13275 293.579 -1.67224 312.464 8.42813 327.94C20.7306 346.763 49.7523 356.236 74.5296 349.494C99.9097 342.593 115.312 320.522 116.801 288.941C121.882 180.913 179.273 147.635 221.176 123.337C247.22 108.242 266.031 97.342 261.897 74.324C261.319 71.1376 260.052 68.9355 257.997 67.5822C252.645 64.0514 242.188 66.4996 230.083 69.3168C206.326 74.853 173.799 82.4313 154.422 49.4729L156.55 48.2426C175.004 79.6509 205.232 72.6016 229.529 66.9424C242.188 64.0021 253.113 61.4555 259.35 65.5523C261.995 67.2869 263.619 70.0304 264.271 73.918C268.713 98.6214 248.278 110.481 222.381 125.49C180.959 149.505 124.244 182.389 119.225 289.114C117.675 321.838 101.607 344.733 75.1324 351.93C69.5546 353.416 63.804 354.152 58.0319 354.12Z" fill="#8B3DFF"/>
<path opacity="0.2" d="M58.0319 354.12C37.1176 354.12 16.4371 344.684 6.36132 329.281C0.148544 319.759 -7.07304 299.817 14.4318 273.206L16.3387 274.757C1.13275 293.579 -1.67224 312.464 8.42813 327.94C20.7306 346.763 49.7523 356.236 74.5296 349.494C99.9097 342.593 115.312 320.522 116.801 288.941C121.882 180.913 179.273 147.635 221.176 123.337C247.22 108.242 266.031 97.342 261.897 74.324C261.319 71.1376 260.052 68.9355 257.997 67.5822C252.645 64.0514 242.188 66.4996 230.083 69.3168C206.326 74.853 173.799 82.4313 154.422 49.4729L156.55 48.2426C175.004 79.6509 205.232 72.6016 229.529 66.9424C242.188 64.0021 253.113 61.4555 259.35 65.5523C261.995 67.2869 263.619 70.0304 264.271 73.918C268.713 98.6214 248.278 110.481 222.381 125.49C180.959 149.505 124.244 182.389 119.225 289.114C117.675 321.838 101.607 344.733 75.1324 351.93C69.5546 353.416 63.804 354.152 58.0319 354.12Z" fill="white"/>
<path d="M129.091 20.3897C134.76 20.4224 140.392 21.3057 145.798 23.0101C145.798 23.0101 159.331 46.102 160.93 51.3921C160.364 56.6083 151.568 65.1586 151.568 65.1586L129.091 20.3897Z" fill="#8B3DFF"/>
<path opacity="0.3" d="M129.091 20.3897C134.76 20.4224 140.392 21.3057 145.798 23.0101C145.798 23.0101 159.331 46.102 160.93 51.3921C160.364 56.6083 151.568 65.1586 151.568 65.1586L129.091 20.3897Z" fill="white"/>
<path d="M169.173 132.503C163.962 126.13 159.209 119.396 154.951 112.351C153.918 110.571 152.938 108.759 152.011 106.913C151.482 105.868 150.977 104.822 150.485 103.764C149.84 102.734 149.339 101.621 148.997 100.455C147.52 84.8672 152.86 73.389 147.767 60.8773L127.492 68.8001C127.492 68.8001 129.214 91.0923 133.151 104.477C135.612 112.757 141.123 119.917 146.45 126.548C148.111 128.615 149.71 130.743 151.371 132.822C153.032 134.902 154.705 136.587 156.292 138.543C158.691 141.508 159.478 144.35 157.67 147.844L157.362 148.397C156.846 149.308 159.257 150.341 160.783 148.397C163.243 145.223 162.899 145.42 165.039 142.714C166.343 141.077 167.832 139.294 169.124 137.793C169.747 137.055 170.093 136.122 170.102 135.157C170.111 134.191 169.782 133.252 169.173 132.503Z" fill="#8B3DFF"/>
<path opacity="0.7" d="M169.173 132.503C163.962 126.13 159.209 119.396 154.951 112.351C153.918 110.571 152.938 108.759 152.011 106.913C151.482 105.868 150.977 104.822 150.485 103.764C149.84 102.734 149.339 101.621 148.997 100.455C147.52 84.8672 152.86 73.389 147.767 60.8773L127.492 68.8001C127.492 68.8001 129.214 91.0923 133.151 104.477C135.612 112.757 141.123 119.917 146.45 126.548C148.111 128.615 149.71 130.743 151.371 132.822C153.032 134.902 154.705 136.587 156.292 138.543C158.691 141.508 159.478 144.35 157.67 147.844L157.362 148.397C156.846 149.308 159.257 150.341 160.783 148.397C163.243 145.223 162.899 145.42 165.039 142.714C166.343 141.077 167.832 139.294 169.124 137.793C169.747 137.055 170.093 136.122 170.102 135.157C170.111 134.191 169.782 133.252 169.173 132.503Z" fill="white"/>
<path opacity="0.3" d="M164.215 126.093C160.998 129.542 157.427 132.643 153.561 135.344C154.09 135.935 154.607 136.575 155.136 137.141C159.006 134.526 162.521 131.42 165.593 127.901L164.215 126.093Z" fill="#8B3DFF"/>
<path opacity="0.3" d="M169.173 132.503L169.025 132.33C168.079 133.416 167.528 134.791 167.463 136.23C167.384 137.218 167.544 138.209 167.93 139.121L169.099 137.731C169.71 137.001 170.051 136.082 170.064 135.13C170.078 134.178 169.763 133.25 169.173 132.503Z" fill="#8B3DFF"/>
<path d="M124.269 35.1527C122.071 38.4438 119.434 41.4197 116.432 43.9983C114.767 45.4332 112.942 46.6716 110.994 47.689C109.971 48.2135 108.91 48.6617 107.82 49.03L106.984 49.3006L106.713 49.3745L106.135 49.5344C105.779 49.6189 105.417 49.6764 105.052 49.7066C104.014 49.786 102.97 49.6903 101.964 49.4237C100.695 49.0635 99.4792 48.5382 98.3472 47.8612C97.4363 47.3288 96.5535 46.7498 95.7022 46.1266C94.164 44.9825 92.6934 43.7502 91.2979 42.4358C88.6068 39.8861 86.1374 37.1121 83.9164 34.1439C83.4887 33.5657 83.2762 32.8563 83.3157 32.1382C83.3552 31.42 83.6441 30.7382 84.1326 30.2103C84.6211 29.6824 85.2785 29.3417 85.9915 29.2467C86.7044 29.1518 87.4281 29.3087 88.0377 29.6904H88.1361C91.0395 31.5358 93.9675 33.4796 96.8217 35.2143C98.2734 36.0631 99.6759 36.9243 101.066 37.5886C101.701 37.9209 102.354 38.2166 103.022 38.4744C103.439 38.6582 103.884 38.7666 104.339 38.7943C104.412 38.7943 104.339 38.7082 103.883 38.7205C103.74 38.7119 103.596 38.7119 103.453 38.7205L103.182 38.782L103.588 38.5728C104.135 38.2787 104.665 37.9543 105.175 37.6009C106.276 36.8248 107.305 35.952 108.251 34.9928C110.4 32.7404 112.413 30.3618 114.279 27.8697C115.301 26.7259 116.714 26.0054 118.24 25.8495C119.767 25.6937 121.296 26.1137 122.528 27.0273C123.761 27.9408 124.607 29.2819 124.902 30.7874C125.197 32.293 124.918 33.8543 124.121 35.1651L124.269 35.1527Z" fill="#8B3DFF"/>
<path opacity="0.7" d="M124.269 35.1527C122.071 38.4438 119.434 41.4197 116.432 43.9983C114.767 45.4332 112.942 46.6716 110.994 47.689C109.971 48.2135 108.91 48.6617 107.82 49.03L106.984 49.3006L106.713 49.3745L106.135 49.5344C105.779 49.6189 105.417 49.6764 105.052 49.7066C104.014 49.786 102.97 49.6903 101.964 49.4237C100.695 49.0635 99.4792 48.5382 98.3472 47.8612C97.4363 47.3288 96.5535 46.7498 95.7022 46.1266C94.164 44.9825 92.6934 43.7502 91.2979 42.4358C88.6068 39.8861 86.1374 37.1121 83.9164 34.1439C83.4887 33.5657 83.2762 32.8563 83.3157 32.1382C83.3552 31.42 83.6441 30.7382 84.1326 30.2103C84.6211 29.6824 85.2785 29.3417 85.9915 29.2467C86.7044 29.1518 87.4281 29.3087 88.0377 29.6904H88.1361C91.0395 31.5358 93.9675 33.4796 96.8217 35.2143C98.2734 36.0631 99.6759 36.9243 101.066 37.5886C101.701 37.9209 102.354 38.2166 103.022 38.4744C103.439 38.6582 103.884 38.7666 104.339 38.7943C104.412 38.7943 104.339 38.7082 103.883 38.7205C103.74 38.7119 103.596 38.7119 103.453 38.7205L103.182 38.782L103.588 38.5728C104.135 38.2787 104.665 37.9543 105.175 37.6009C106.276 36.8248 107.305 35.952 108.251 34.9928C110.4 32.7404 112.413 30.3618 114.279 27.8697C115.301 26.7259 116.714 26.0054 118.24 25.8495C119.767 25.6937 121.296 26.1137 122.528 27.0273C123.761 27.9408 124.607 29.2819 124.902 30.7874C125.197 32.293 124.918 33.8543 124.121 35.1651L124.269 35.1527Z" fill="white"/>
<path d="M79.3028 27.0577L80.7422 29.5182C80.7422 29.5182 81.8372 32.7414 84.0393 33.332L90.0183 31.4005L89.7108 30.8961C88.948 29.7396 89.0341 27.4883 89.2925 25.6183C89.5508 23.7483 88.5912 23.6868 87.8777 24.1543C87.372 24.7359 87.0171 25.4331 86.8443 26.1842C86.5508 25.7779 86.2258 25.3954 85.8724 25.0401L84.0516 23.2193C83.6696 22.8459 83.1607 22.6308 82.6267 22.6172C82.0928 22.6035 81.5734 22.7922 81.1728 23.1455L79.6965 24.4619C79.3463 24.7858 79.1166 25.2191 79.045 25.6908C78.9735 26.1625 79.0644 26.6445 79.3028 27.0577Z" fill="#8B3DFF"/>
<path opacity="0.7" d="M79.3028 27.0577L80.7422 29.5182C80.7422 29.5182 81.8372 32.7414 84.0393 33.332L90.0183 31.4005L89.7108 30.8961C88.948 29.7396 89.0341 27.4883 89.2925 25.6183C89.5508 23.7483 88.5912 23.6868 87.8777 24.1543C87.372 24.7359 87.0171 25.4331 86.8443 26.1842C86.5508 25.7779 86.2258 25.3954 85.8724 25.0401L84.0516 23.2193C83.6696 22.8459 83.1607 22.6308 82.6267 22.6172C82.0928 22.6035 81.5734 22.7922 81.1728 23.1455L79.6965 24.4619C79.3463 24.7858 79.1166 25.2191 79.045 25.6908C78.9735 26.1625 79.0644 26.6445 79.3028 27.0577Z" fill="white"/>
<path d="M135.132 18.1999C128.5 19.9577 122.147 22.6371 116.26 26.1596C115.341 26.7345 114.62 27.5763 114.194 28.5724C113.767 29.5685 113.655 30.6712 113.873 31.7326C116.247 43.3462 121.648 58.8966 127.48 68.8001L154.68 57.5433C154.865 52.7453 148.259 37.2196 141.529 22.2105C140.323 19.5162 137.998 17.5109 135.132 18.1999Z" fill="#8B3DFF"/>
<path opacity="0.8" d="M135.132 18.1999C128.5 19.9577 122.147 22.6371 116.26 26.1596C115.341 26.7345 114.62 27.5763 114.194 28.5724C113.767 29.5685 113.655 30.6712 113.873 31.7326C116.247 43.3462 121.648 58.8966 127.48 68.8001L154.68 57.5433C154.865 52.7453 148.259 37.2196 141.529 22.2105C140.323 19.5162 137.998 17.5109 135.132 18.1999Z" fill="white"/>
<path opacity="0.3" d="M145.749 31.7203L140.348 29.9119C141.578 33.0736 145.921 37.0719 148.96 39.4217C147.976 36.9612 146.881 34.3777 145.749 31.7203Z" fill="#8B3DFF"/>
<path d="M133.348 6.02038C131.097 1.7391 126.237 -0.413832 120.406 0.0659667C115.485 0.484252 111.13 5.50367 111.646 8.21023C112.163 10.9168 116.297 12.0732 117.084 13.0082L113.676 15.4687C113.273 15.7601 112.932 16.1301 112.675 16.5566C112.418 16.983 112.25 17.4571 112.181 17.9501C112.112 18.4432 112.144 18.9451 112.274 19.4257C112.404 19.9063 112.63 20.3555 112.938 20.7465C114.377 22.5673 116.272 24.4373 117.367 25.8151C126.791 25.5691 133.766 21.9768 136.288 18.5197C135.341 14.14 135.538 10.2771 133.348 6.02038Z" fill="#8B3DFF"/>
<path opacity="0.8" d="M133.348 6.02038C131.097 1.7391 126.237 -0.413832 120.406 0.0659667C115.485 0.484252 111.13 5.50367 111.646 8.21023C112.163 10.9168 116.297 12.0732 117.084 13.0082L113.676 15.4687C113.273 15.7601 112.932 16.1301 112.675 16.5566C112.418 16.983 112.25 17.4571 112.181 17.9501C112.112 18.4432 112.144 18.9451 112.274 19.4257C112.404 19.9063 112.63 20.3555 112.938 20.7465C114.377 22.5673 116.272 24.4373 117.367 25.8151C126.791 25.5691 133.766 21.9768 136.288 18.5197C135.341 14.14 135.538 10.2771 133.348 6.02038Z" fill="white"/>
<path d="M128.722 8.67773C129.391 10.3935 129.537 12.269 129.14 14.0673C128.743 15.8656 127.822 17.5059 126.493 18.7809C125.164 20.0559 123.488 20.9083 121.674 21.2304C119.861 21.5525 117.993 21.3298 116.307 20.5905C114.62 19.8512 113.19 18.6285 112.199 17.0769C111.207 15.5253 110.697 13.7144 110.734 11.8733C110.771 10.0321 111.354 8.24329 112.407 6.7329C113.461 5.22251 114.938 4.05838 116.653 3.38764C118.955 2.49083 121.519 2.54419 123.782 3.53603C126.045 4.52786 127.822 6.37711 128.722 8.67773Z" fill="#263238"/>
<path d="M208.602 119.548C208.467 115.501 208.283 115.857 208.172 112.449C208.098 110.358 208.086 108.033 208.073 106.028C208.069 105.075 207.736 104.154 207.131 103.418C206.526 102.683 205.685 102.179 204.752 101.992C203.128 101.66 201.492 101.353 199.831 101.008C197.702 100.553 195.599 100.061 193.52 99.458C191.896 98.9905 190.296 98.4738 188.709 97.8956C187.122 97.3174 185.338 96.6654 183.69 95.9026C181.746 95.0783 179.827 94.1925 177.932 93.2699C175.804 92.2611 173.7 91.203 171.596 90.1327C163.501 76.7353 163.329 67.9021 154.644 57.5433L135.993 65.9829C135.993 65.9829 149.698 90.2926 159.023 100.602C164.399 106.532 172.827 109.214 180.344 111.158C185.769 112.548 191.268 113.618 196.767 114.639C198.908 115.033 201.233 115.181 203.079 116.46C204.444 117.507 205.38 119.016 205.711 120.704C205.793 121.049 205.867 121.393 205.933 121.738C206.166 122.771 208.689 121.984 208.602 119.548Z" fill="#8B3DFF"/>
<path opacity="0.8" d="M208.602 119.548C208.467 115.501 208.283 115.857 208.172 112.449C208.098 110.358 208.086 108.033 208.073 106.028C208.069 105.075 207.736 104.154 207.131 103.418C206.526 102.683 205.685 102.179 204.752 101.992C203.128 101.66 201.492 101.353 199.831 101.008C197.702 100.553 195.599 100.061 193.52 99.458C191.896 98.9905 190.296 98.4738 188.709 97.8956C187.122 97.3174 185.338 96.6654 183.69 95.9026C181.746 95.0783 179.827 94.1925 177.932 93.2699C175.804 92.2611 173.7 91.203 171.596 90.1327C163.501 76.7353 163.329 67.9021 154.644 57.5433L135.993 65.9829C135.993 65.9829 149.698 90.2926 159.023 100.602C164.399 106.532 172.827 109.214 180.344 111.158C185.769 112.548 191.268 113.618 196.767 114.639C198.908 115.033 201.233 115.181 203.079 116.46C204.444 117.507 205.38 119.016 205.711 120.704C205.793 121.049 205.867 121.393 205.933 121.738C206.166 122.771 208.689 121.984 208.602 119.548Z" fill="white"/>
<path opacity="0.3" d="M199.142 100.848C198.404 100.688 197.666 100.528 196.915 100.344C196.977 104.6 194.984 111.933 194.258 114.16L196.595 114.602C198.127 110.171 198.986 105.534 199.142 100.848Z" fill="#8B3DFF"/>
<path opacity="0.3" d="M208.123 106.028C208.119 105.077 207.788 104.157 207.185 103.422C206.582 102.687 205.745 102.182 204.813 101.992L203.583 101.759C203.781 103.157 204.496 104.43 205.588 105.326C206.291 105.976 207.132 106.455 208.049 106.729C208.123 106.507 208.123 106.261 208.123 106.028Z" fill="#8B3DFF"/>
<path d="M126.987 8.75155C127.48 10.6215 125.388 12.5776 123.727 10.966C122.177 9.30398 120.481 7.78467 118.659 6.42637C116.949 5.35605 119.225 3.48607 121.919 4.21192C123.069 4.50074 124.131 5.06493 125.014 5.8558C125.897 6.64668 126.574 7.6405 126.987 8.75155Z" fill="white"/>
<path d="M127.123 68.1973C126.262 68.5172 127.836 69.9935 127.836 69.9935C127.836 69.9935 145.06 64.1006 155.517 58.0354C155.542 57.6682 155.48 57.3003 155.334 56.9622C155.189 56.6242 154.964 56.3257 154.68 56.0916C145.731 60.6443 136.53 64.686 127.123 68.1973Z" fill="#8B3DFF"/>
<path opacity="0.5" d="M127.123 68.1973C126.262 68.5172 127.836 69.9935 127.836 69.9935C127.836 69.9935 145.06 64.1006 155.517 58.0354C155.542 57.6682 155.48 57.3003 155.334 56.9622C155.189 56.6242 154.964 56.3257 154.68 56.0916C145.731 60.6443 136.53 64.686 127.123 68.1973Z" fill="white"/>
<path d="M139.794 17.3879C143.19 19.1103 146.376 20.9187 149.636 22.924C151.223 23.9328 152.798 24.954 154.361 26.0612C155.923 27.1684 157.473 28.3002 159.036 29.5797L159.614 30.0595L160.34 30.7238C160.772 31.1108 161.183 31.5215 161.57 31.9541C161.964 32.3847 162.296 32.803 162.616 33.1843C162.935 33.5657 163.28 34.0209 163.563 34.4146C164.709 35.9962 165.769 37.6389 166.737 39.3356C168.644 42.6257 170.289 46.0605 171.658 49.6082C171.911 50.2785 171.924 51.0158 171.695 51.6946C171.466 52.3735 171.009 52.952 170.401 53.3319C169.794 53.7117 169.073 53.8695 168.363 53.7782C167.652 53.687 166.995 53.3525 166.503 52.8315L166.442 52.7576C163.981 50.1372 161.607 47.3814 159.22 44.8102C156.833 42.239 154.41 39.6309 152.404 38.4867C149.612 36.7521 146.499 35.0174 143.411 33.3197L134.111 28.1526C132.668 27.3891 131.589 26.084 131.109 24.5243C130.629 22.9647 130.788 21.2783 131.552 19.8361C132.315 18.3939 133.62 17.3141 135.18 16.8342C136.74 16.3543 138.426 16.5137 139.868 17.2772L139.794 17.3879Z" fill="#8B3DFF"/>
<path opacity="0.8" d="M139.794 17.3879C143.19 19.1103 146.376 20.9187 149.636 22.924C151.223 23.9328 152.798 24.954 154.361 26.0612C155.923 27.1684 157.473 28.3002 159.036 29.5797L159.614 30.0595L160.34 30.7238C160.772 31.1108 161.183 31.5215 161.57 31.9541C161.964 32.3847 162.296 32.803 162.616 33.1843C162.935 33.5657 163.28 34.0209 163.563 34.4146C164.709 35.9962 165.769 37.6389 166.737 39.3356C168.644 42.6257 170.289 46.0605 171.658 49.6082C171.911 50.2785 171.924 51.0158 171.695 51.6946C171.466 52.3735 171.009 52.952 170.401 53.3319C169.794 53.7117 169.073 53.8695 168.363 53.7782C167.652 53.687 166.995 53.3525 166.503 52.8315L166.442 52.7576C163.981 50.1372 161.607 47.3814 159.22 44.8102C156.833 42.239 154.41 39.6309 152.404 38.4867C149.612 36.7521 146.499 35.0174 143.411 33.3197L134.111 28.1526C132.668 27.3891 131.589 26.084 131.109 24.5243C130.629 22.9647 130.788 21.2783 131.552 19.8361C132.315 18.3939 133.62 17.3141 135.18 16.8342C136.74 16.3543 138.426 16.5137 139.868 17.2772L139.794 17.3879Z" fill="white"/>
<path d="M174.574 55.7472L173.528 53.1267C173.528 53.1267 172.95 49.7805 170.871 48.8455L164.719 49.8174L164.929 50.3587C165.494 51.5889 165.064 53.8403 164.51 55.6365C163.957 57.4326 164.892 57.6664 165.679 57.3096C166.122 57.1128 166.552 56.3131 167.02 55.4642C167.249 55.8919 167.508 56.303 167.795 56.6945L169.308 58.7736C169.624 59.2044 170.092 59.4997 170.617 59.6001C171.142 59.7005 171.685 59.5986 172.138 59.3149L173.811 58.2446C174.203 57.9766 174.491 57.5834 174.63 57.1295C174.769 56.6757 174.749 56.1882 174.574 55.7472Z" fill="#8B3DFF"/>
<path opacity="0.8" d="M174.574 55.7472L173.528 53.1267C173.528 53.1267 172.95 49.7805 170.871 48.8455L164.719 49.8174L164.929 50.3587C165.494 51.5889 165.064 53.8403 164.51 55.6365C163.957 57.4326 164.892 57.6664 165.679 57.3096C166.122 57.1128 166.552 56.3131 167.02 55.4642C167.249 55.8919 167.508 56.303 167.795 56.6945L169.308 58.7736C169.624 59.2044 170.092 59.4997 170.617 59.6001C171.142 59.7005 171.685 59.5986 172.138 59.3149L173.811 58.2446C174.203 57.9766 174.491 57.5834 174.63 57.1295C174.769 56.6757 174.749 56.1882 174.574 55.7472Z" fill="white"/>
<path opacity="0.3" d="M134.603 31.5358L133.102 31.6588L123.887 53.9018C124.391 53.938 124.897 53.8965 125.388 53.7788C125.388 53.7788 137.395 49.3006 141.025 47.6275C138.589 42.5958 134.603 31.5358 134.603 31.5358Z" fill="#8B3DFF"/>
<path d="M117.785 37.3672C118.905 43.1816 120.984 48.7694 123.936 53.9018C128.439 52.3517 135.944 49.4237 139.585 47.7505C137.138 42.5034 134.965 37.1322 133.077 31.6588C129.226 31.9172 120.775 35.1527 117.785 37.3672Z" fill="white"/>
<path opacity="0.3" d="M126.926 42.1775C126.746 42.7791 126.392 43.3139 125.908 43.7141C125.424 44.1143 124.833 44.3621 124.208 44.426C123.583 44.4898 122.954 44.367 122.399 44.073C121.844 43.779 121.389 43.327 121.091 42.7742C120.793 42.2215 120.666 41.5928 120.725 40.9677C120.785 40.3425 121.028 39.7491 121.425 39.2625C121.822 38.7758 122.354 38.4178 122.955 38.2338C123.555 38.0497 124.196 38.0478 124.798 38.2284C125.603 38.4703 126.28 39.022 126.679 39.7625C127.078 40.503 127.167 41.3716 126.926 42.1775Z" fill="#8B3DFF"/>
<path opacity="0.6" d="M129.276 37.9454C129.228 38.1508 129.119 38.3368 128.963 38.4792C128.808 38.6215 128.613 38.7135 128.404 38.7431C128.195 38.7726 127.982 38.7383 127.793 38.6447C127.604 38.5511 127.448 38.4026 127.345 38.2186C127.242 38.0346 127.197 37.8238 127.216 37.6137C127.235 37.4037 127.317 37.2043 127.451 37.0417C127.585 36.8791 127.766 36.7609 127.968 36.7027C128.171 36.6444 128.387 36.6487 128.587 36.7152C128.836 36.7949 129.046 36.9662 129.174 37.1946C129.302 37.4229 129.338 37.6912 129.276 37.9454Z" fill="#8B3DFF"/>
<path opacity="0.6" d="M132.032 36.8751C132.003 37.0178 131.944 37.1529 131.86 37.2718C131.776 37.3906 131.668 37.4906 131.543 37.5653C131.418 37.64 131.279 37.6878 131.134 37.7056C130.99 37.7234 130.843 37.7108 130.704 37.6686C130.565 37.6265 130.436 37.5557 130.325 37.4608C130.215 37.3659 130.125 37.2489 130.063 37.1175C130 36.986 129.965 36.843 129.961 36.6974C129.957 36.5519 129.984 36.4071 130.039 36.2723C130.078 36.1421 130.143 36.0209 130.229 35.9158C130.315 35.8107 130.421 35.7236 130.541 35.6596C130.661 35.5956 130.793 35.5559 130.928 35.5428C131.064 35.5297 131.2 35.5435 131.33 35.5833C131.594 35.6631 131.815 35.8434 131.946 36.0852C132.077 36.327 132.108 36.6108 132.032 36.8751Z" fill="#8B3DFF"/>
<path opacity="0.5" d="M135.895 46.4588L124.515 50.9492L123.838 48.7101L135.206 44.2197L135.895 46.4588Z" fill="#8B3DFF"/>
</svg>
