<svg width="54" height="54" viewBox="0 0 54 54" fill="none" xmlns="http://www.w3.org/2000/svg">
<path d="M26.9875 53.9096C41.8743 53.9096 53.9423 41.8416 53.9423 26.9548C53.9423 12.0681 41.8743 0 26.9875 0C12.1008 0 0.0327148 12.0681 0.0327148 26.9548C0.0327148 41.8416 12.1008 53.9096 26.9875 53.9096Z" fill="#8B3DFF"/>
<path opacity="0.7" d="M26.9875 53.9096C41.8743 53.9096 53.9423 41.8416 53.9423 26.9548C53.9423 12.0681 41.8743 0 26.9875 0C12.1008 0 0.0327148 12.0681 0.0327148 26.9548C0.0327148 41.8416 12.1008 53.9096 26.9875 53.9096Z" fill="white"/>
<path opacity="0.2" d="M17.6993 6.61878C14.0284 6.60753 10.3941 7.34861 7.02068 8.79632C2.87472 13.353 0.413929 19.192 0.0477116 25.3416C-0.318506 31.4913 1.43194 37.581 5.0078 42.5976C8.58367 47.6142 13.7694 51.2551 19.7022 52.9148C25.635 54.5745 31.9572 54.1528 37.617 51.7198C41.1261 47.8527 43.4369 43.0499 44.2689 37.8947C45.1009 32.7395 44.4182 27.4536 42.3038 22.6789C40.1894 17.9042 36.7342 13.8461 32.3578 10.9974C27.9814 8.14864 22.872 6.63181 17.6501 6.63107L17.6993 6.61878Z" fill="#8B3DFF"/>
<path opacity="0.2" d="M15.0172 13.7419C15.0172 14.2286 14.8729 14.7043 14.6025 15.1089C14.3322 15.5135 13.9479 15.8289 13.4983 16.0151C13.0487 16.2014 12.554 16.2501 12.0767 16.1552C11.5994 16.0602 11.161 15.8259 10.8169 15.4818C10.4727 15.1377 10.2384 14.6992 10.1435 14.222C10.0485 13.7447 10.0973 13.2499 10.2835 12.8003C10.4697 12.3507 10.7851 11.9665 11.1897 11.6961C11.5943 11.4257 12.0701 11.2814 12.5567 11.2814C13.2093 11.2814 13.8351 11.5407 14.2965 12.0021C14.758 12.4635 15.0172 13.0894 15.0172 13.7419Z" fill="#8B3DFF"/>
<path opacity="0.2" d="M44.0021 11.2814C44.0021 11.7681 43.8578 12.2438 43.5874 12.6484C43.317 13.053 42.9327 13.3684 42.4831 13.5546C42.0335 13.7409 41.5388 13.7896 41.0615 13.6947C40.5842 13.5997 40.1458 13.3654 39.8017 13.0213C39.4576 12.6772 39.2233 12.2387 39.1283 11.7614C39.0334 11.2841 39.0821 10.7894 39.2683 10.3398C39.4546 9.89023 39.7699 9.50595 40.1746 9.23559C40.5792 8.96523 41.0549 8.82092 41.5416 8.82092C42.1941 8.82092 42.82 9.08015 43.2814 9.54159C43.7428 10.003 44.0021 10.6289 44.0021 11.2814Z" fill="#8B3DFF"/>
<path opacity="0.2" d="M39.081 28.8494C39.081 29.6475 38.8443 30.4277 38.4009 31.0912C37.9575 31.7548 37.3273 32.2721 36.5899 32.5775C35.8526 32.8829 35.0413 32.9628 34.2585 32.8071C33.4757 32.6514 32.7567 32.2671 32.1924 31.7027C31.6281 31.1384 31.2437 30.4194 31.088 29.6366C30.9323 28.8539 31.0123 28.0425 31.3177 27.3052C31.6231 26.5678 32.1403 25.9376 32.8039 25.4942C33.4675 25.0508 34.2476 24.8142 35.0457 24.8142C36.1159 24.8142 37.1423 25.2393 37.8991 25.9961C38.6558 26.7528 39.081 27.7792 39.081 28.8494Z" fill="#8B3DFF"/>
<path opacity="0.2" d="M26.2619 40.3523C26.2619 41.418 25.9458 42.4598 25.3538 43.346C24.7617 44.2321 23.9201 44.9228 22.9355 45.3306C21.9508 45.7384 20.8674 45.8452 19.8221 45.6372C18.7769 45.4293 17.8167 44.9161 17.0631 44.1625C16.3095 43.4089 15.7963 42.4488 15.5884 41.4035C15.3805 40.3582 15.4872 39.2748 15.895 38.2902C16.3029 37.3056 16.9935 36.464 17.8797 35.8719C18.7658 35.2798 19.8076 34.9638 20.8734 34.9638C22.3025 34.9638 23.6731 35.5315 24.6836 36.542C25.6942 37.5526 26.2619 38.9232 26.2619 40.3523Z" fill="#8B3DFF"/>
</svg>
