<svg width="74" height="57" viewBox="0 0 74 57" fill="none" xmlns="http://www.w3.org/2000/svg">
<path d="M57.2032 33.894C60.2045 21.1775 52.3289 8.43579 39.6125 5.43444C26.8961 2.4331 14.1543 10.3087 11.1529 23.0251C8.15158 35.7415 16.0272 48.4833 28.7436 51.4847C41.4601 54.486 54.2018 46.6104 57.2032 33.894Z" fill="#8B3DFF"/>
<path opacity="0.3" d="M57.2032 33.894C60.2045 21.1775 52.3289 8.43579 39.6125 5.43444C26.8961 2.4331 14.1543 10.3087 11.1529 23.0251C8.15158 35.7415 16.0272 48.4833 28.7436 51.4847C41.4601 54.486 54.2018 46.6104 57.2032 33.894Z" fill="white"/>
<path opacity="0.4" d="M49.1206 10.1425C43.8762 8.55963 38.2448 8.8468 33.1886 10.955C28.1324 13.0632 23.9651 16.8616 21.3985 21.7013C18.832 26.541 18.0255 32.1216 19.1168 37.49C20.2082 42.8583 23.1296 47.6811 27.3821 51.1345C29.5877 51.8044 31.8803 52.1444 34.1854 52.1434C39.0694 52.1423 43.8335 50.6296 47.8235 47.8129C51.8136 44.9963 54.8341 41.0137 56.4705 36.4119C58.1068 31.8102 58.2788 26.8147 56.9629 22.1113C55.6469 17.4078 52.9075 13.227 49.1206 10.1425Z" fill="#8B3DFF"/>
<path d="M11.598 35.5595C-13.6591 47.4438 5.17607 56.6092 40.7673 43.8145C73.7257 31.9672 86.2866 17.0319 56.7605 21.67C58.3476 27.8828 17.0726 43.9622 11.598 35.5595Z" fill="#8B3DFF"/>
</svg>
