<svg width="100" height="98" viewBox="0 0 100 98" fill="none" xmlns="http://www.w3.org/2000/svg">
<path d="M20.0663 46.5204L29.5206 55.9747L55.9925 31.0316C46.8678 27.5471 29.1262 37.4389 20.0663 46.5204Z" fill="#263238"/>
<path d="M53.0373 79.4753C50.0173 76.4499 43.583 70.021 43.583 70.021L68.5261 43.5491C71.989 52.6522 62.0972 70.41 53.0373 79.4753Z" fill="#263238"/>
<path d="M89.2228 19.8864L99.5361 0L79.6497 10.3241C73.2621 13.6368 67.3642 17.8184 62.1242 22.7497L28.2239 54.6619L44.8796 71.3176L76.7918 37.4173C81.7254 32.1759 85.9088 26.2762 89.2228 19.8864Z" fill="#8B3DFF"/>
<path opacity="0.6" d="M89.2228 19.8864L99.5361 0L79.6497 10.3241C73.2621 13.6368 67.3642 17.8184 62.1242 22.7497L28.2239 54.6619L44.8796 71.3176L76.7918 37.4173C81.7254 32.1759 85.9088 26.2762 89.2228 19.8864Z" fill="white"/>
<path d="M68.0453 38.46C71.8943 38.46 75.0145 35.3398 75.0145 31.4908C75.0145 27.6419 71.8943 24.5217 68.0453 24.5217C64.1964 24.5217 61.0762 27.6419 61.0762 31.4908C61.0762 35.3398 64.1964 38.46 68.0453 38.46Z" fill="white"/>
<path d="M68.0454 35.9694C70.5189 35.9694 72.524 33.9643 72.524 31.4908C72.524 29.0173 70.5189 27.0122 68.0454 27.0122C65.5719 27.0122 63.5668 29.0173 63.5668 31.4908C63.5668 33.9643 65.5719 35.9694 68.0454 35.9694Z" fill="#8B3DFF"/>
<path opacity="0.3" d="M50.5144 65.3317L34.2045 49.0217L47.5593 36.4557L63.0805 51.9823L50.5144 65.3317Z" fill="#8B3DFF"/>
<path d="M23.7561 61.4419C11.5466 62.4306 7.50018 70.2479 6.11716 80.6368C5.41484 85.9366 5.1015 91.3012 0.655291 94.4022C0.387813 94.584 0.186423 94.8475 0.0812855 95.1534C-0.0238524 95.4592 -0.0270809 95.7909 0.0720817 96.0987C0.171244 96.4066 0.367464 96.674 0.631352 96.861C0.895239 97.0479 1.21259 97.1444 1.53589 97.1358C17.9269 96.6226 25.5713 88.6 26.533 85.2505C26.2806 87.0015 25.8292 88.7179 25.1878 90.3666C25.0699 90.6575 25.0468 90.9782 25.1218 91.283C25.1968 91.5879 25.3661 91.8612 25.6056 92.0642C25.8451 92.2671 26.1425 92.3893 26.4555 92.4134C26.7685 92.4374 27.0811 92.362 27.3487 92.198C31.9462 89.3185 37.716 84.0133 38.0996 75.4072C34.7177 70.6153 23.7561 61.4419 23.7561 61.4419Z" fill="#8B3DFF"/>
<path opacity="0.2" d="M23.7561 61.4419C11.5466 62.4306 7.50018 70.2479 6.11716 80.6368C5.41484 85.9366 5.1015 91.3012 0.655291 94.4022C0.387813 94.584 0.186423 94.8475 0.0812855 95.1534C-0.0238524 95.4592 -0.0270809 95.7909 0.0720817 96.0987C0.171244 96.4066 0.367464 96.674 0.631352 96.861C0.895239 97.0479 1.21259 97.1444 1.53589 97.1358C17.9269 96.6226 25.5713 88.6 26.533 85.2505C26.2806 87.0015 25.8292 88.7179 25.1878 90.3666C25.0699 90.6575 25.0468 90.9782 25.1218 91.283C25.1968 91.5879 25.3661 91.8612 25.6056 92.0642C25.8451 92.2671 26.1425 92.3893 26.4555 92.4134C26.7685 92.4374 27.0811 92.362 27.3487 92.198C31.9462 89.3185 37.716 84.0133 38.0996 75.4072C34.7177 70.6153 23.7561 61.4419 23.7561 61.4419Z" fill="white"/>
<path d="M39.9959 79.0971L20.4391 59.5403L30.855 57.2875L42.2487 68.6812L39.9959 79.0971Z" fill="#8B3DFF"/>
</svg>
