<svg width="473" height="443" viewBox="0 0 473 443" fill="none" xmlns="http://www.w3.org/2000/svg">
<path d="M68.2692 123.726L70.2622 127.749L74.7157 128.401L71.4924 131.539L72.2552 135.967L68.2692 133.876L64.2955 135.967L65.0582 131.539L61.835 128.401L66.2885 127.749L68.2692 123.726Z" fill="#EBEBEB"/>
<path d="M466.44 313.468L468.433 317.503L472.887 318.155L469.664 321.28L470.426 325.721L466.44 323.63L462.467 325.721L463.229 321.28L460.006 318.155L464.46 317.503L466.44 313.468Z" fill="#F5F5F5"/>
<path d="M387.581 430.453L389.574 434.476L394.015 435.128L390.792 438.265L391.555 442.694L387.581 440.602L383.607 442.694L384.358 438.265L381.147 435.128L385.588 434.476L387.581 430.453Z" fill="#F5F5F5"/>
<path d="M207.152 52.2488L207.891 53.7497L209.551 53.9957C209.644 54.0078 209.731 54.0461 209.803 54.1061C209.875 54.166 209.928 54.2451 209.956 54.3342C209.985 54.4232 209.987 54.5185 209.964 54.6089C209.94 54.6993 209.891 54.7811 209.822 54.8446L208.592 56.0133L208.875 57.6619C208.889 57.7536 208.878 57.8476 208.843 57.9335C208.807 58.0193 208.749 58.0937 208.674 58.1484C208.599 58.2031 208.51 58.236 208.417 58.2435C208.325 58.251 208.232 58.2328 208.149 58.1909L206.673 57.4035L205.196 58.1909C205.113 58.2328 205.021 58.251 204.928 58.2435C204.835 58.236 204.747 58.2031 204.672 58.1484C204.597 58.0937 204.538 58.0193 204.503 57.9335C204.467 57.8476 204.456 57.7536 204.471 57.6619L204.741 56.0133L203.511 54.8446C203.442 54.7803 203.393 54.6975 203.37 54.6062C203.347 54.5148 203.35 54.4188 203.38 54.3294C203.41 54.2399 203.465 54.161 203.538 54.1018C203.611 54.0427 203.7 54.0059 203.794 53.9957L205.442 53.7497L206.181 52.2488C206.21 52.1426 206.274 52.049 206.361 51.9823C206.449 51.9156 206.556 51.8795 206.667 51.8795C206.777 51.8795 206.884 51.9156 206.972 51.9823C207.059 52.049 207.123 52.1426 207.152 52.2488Z" fill="#EBEBEB"/>
<path d="M3.96405 411.298L4.7022 412.786L6.35074 413.032C6.44433 413.045 6.53242 413.084 6.60497 413.145C6.67752 413.205 6.73163 413.285 6.76112 413.375C6.79061 413.464 6.7943 413.561 6.77177 413.652C6.74924 413.744 6.7014 413.828 6.6337 413.894L5.40344 415.05L5.6864 416.699C5.70093 416.79 5.68984 416.884 5.65436 416.97C5.61887 417.056 5.56037 417.13 5.48529 417.185C5.41022 417.24 5.3215 417.273 5.2289 417.28C5.13631 417.288 5.04345 417.27 4.96055 417.228L3.48425 416.453L2.00795 417.228C1.92505 417.27 1.83219 417.288 1.7396 417.28C1.64701 417.273 1.55828 417.24 1.48321 417.185C1.40813 417.13 1.34963 417.056 1.31414 416.97C1.27865 416.884 1.26757 416.79 1.2821 416.699L1.56506 415.05L0.334807 413.894C0.267324 413.829 0.21931 413.746 0.196161 413.655C0.173011 413.564 0.17564 413.469 0.203749 413.379C0.231858 413.29 0.284334 413.21 0.355292 413.149C0.42625 413.088 0.51288 413.047 0.605459 413.032L2.254 412.786L3.00445 411.298C3.03733 411.196 3.10147 411.108 3.18766 411.045C3.27386 410.983 3.37768 410.949 3.48425 410.949C3.59081 410.949 3.69464 410.983 3.78084 411.045C3.86704 411.108 3.93117 411.196 3.96405 411.298Z" fill="#F5F5F5"/>
<path d="M37.1438 36.4401L37.8819 37.941L39.5428 38.1748C39.6353 38.1895 39.722 38.2298 39.7929 38.2911C39.8639 38.3524 39.9164 38.4322 39.9445 38.5216C39.9726 38.6111 39.9752 38.7066 39.9521 38.7974C39.9289 38.8883 39.8809 38.9709 39.8134 39.0359L38.5832 40.2662L38.8661 41.9024C38.8858 41.9953 38.8782 42.0919 38.8442 42.1805C38.8102 42.2692 38.7513 42.3461 38.6745 42.402C38.5978 42.4579 38.5066 42.4905 38.4118 42.4957C38.317 42.5009 38.2227 42.4786 38.1403 42.4314L36.664 41.6564L35.1877 42.4314C35.1053 42.4786 35.011 42.5009 34.9162 42.4957C34.8214 42.4905 34.7302 42.4579 34.6534 42.402C34.5767 42.3461 34.5178 42.2692 34.4838 42.1805C34.4498 42.0919 34.4422 41.9953 34.4618 41.9024L34.7325 40.2662L33.5022 39.0359C33.4345 38.97 33.3867 38.8865 33.3642 38.7947C33.3416 38.703 33.3453 38.6067 33.3748 38.517C33.4043 38.4272 33.4584 38.3476 33.531 38.2871C33.6035 38.2266 33.6916 38.1876 33.7852 38.1748L35.4337 37.941L36.2211 36.4401C36.2606 36.3507 36.3253 36.2747 36.4072 36.2214C36.4891 36.168 36.5847 36.1396 36.6824 36.1396C36.7802 36.1396 36.8758 36.168 36.9577 36.2214C37.0396 36.2747 37.1043 36.3507 37.1438 36.4401Z" fill="#EBEBEB"/>
<path d="M17.7942 147.3L18.5323 148.801L20.1932 149.035C20.2857 149.05 20.3724 149.09 20.4433 149.151C20.5143 149.213 20.5668 149.293 20.5949 149.382C20.623 149.471 20.6256 149.567 20.6025 149.658C20.5793 149.749 20.5313 149.831 20.4638 149.896L19.2336 151.127L19.5165 152.763C19.5362 152.856 19.5286 152.952 19.4946 153.041C19.4606 153.13 19.4017 153.206 19.3249 153.262C19.2482 153.318 19.1569 153.351 19.0621 153.356C18.9674 153.361 18.8731 153.339 18.7907 153.292L17.3144 152.517L15.8381 153.292C15.7557 153.339 15.6614 153.361 15.5666 153.356C15.4718 153.351 15.3805 153.318 15.3038 153.262C15.2271 153.206 15.1682 153.13 15.1342 153.041C15.1002 152.952 15.0926 152.856 15.1122 152.763L15.3829 151.127L14.1526 149.896C14.0849 149.83 14.0371 149.747 14.0146 149.655C13.992 149.563 13.9957 149.467 14.0252 149.377C14.0547 149.288 14.1088 149.208 14.1814 149.147C14.2539 149.087 14.342 149.048 14.4356 149.035L16.0841 148.801L16.8715 147.3C16.911 147.211 16.9756 147.135 17.0575 147.082C17.1394 147.028 17.2351 147 17.3328 147C17.4306 147 17.5262 147.028 17.6081 147.082C17.69 147.135 17.7547 147.211 17.7942 147.3Z" fill="#EBEBEB"/>
<path d="M35.1508 332.955C35.1533 333.279 35.0594 333.597 34.8811 333.868C34.7028 334.138 34.4481 334.35 34.1493 334.476C33.8506 334.602 33.5212 334.636 33.203 334.574C32.8848 334.512 32.5921 334.357 32.362 334.129C32.132 333.901 31.9749 333.609 31.9108 333.291C31.8466 332.974 31.8783 332.644 32.0018 332.344C32.1253 332.045 32.335 331.788 32.6043 331.608C32.8736 331.428 33.1905 331.331 33.5146 331.331C33.9464 331.331 34.3608 331.502 34.6673 331.806C34.9738 332.111 35.1476 332.524 35.1508 332.955Z" fill="#EBEBEB"/>
<path d="M268.333 128.205C268.335 128.529 268.242 128.846 268.063 129.117C267.885 129.388 267.63 129.599 267.331 129.725C267.033 129.851 266.703 129.885 266.385 129.823C266.067 129.761 265.774 129.607 265.544 129.378C265.314 129.15 265.157 128.858 265.093 128.541C265.029 128.223 265.06 127.893 265.184 127.594C265.307 127.294 265.517 127.038 265.786 126.857C266.056 126.677 266.373 126.581 266.697 126.581C266.911 126.579 267.123 126.62 267.322 126.701C267.52 126.782 267.701 126.901 267.853 127.052C268.005 127.203 268.126 127.382 268.208 127.58C268.291 127.778 268.333 127.99 268.333 128.205Z" fill="#EBEBEB"/>
<path d="M183.495 37.7933C183.495 38.117 183.399 38.4333 183.219 38.7024C183.039 38.9715 182.784 39.1812 182.485 39.305C182.186 39.4289 181.857 39.4613 181.539 39.3981C181.222 39.335 180.93 39.1792 180.701 38.9503C180.473 38.7215 180.317 38.43 180.254 38.1126C180.19 37.7952 180.223 37.4662 180.347 37.1672C180.471 36.8682 180.68 36.6126 180.949 36.4329C181.218 36.2531 181.535 36.1571 181.858 36.1571C182.291 36.1603 182.706 36.3337 183.012 36.6399C183.318 36.9461 183.491 37.3604 183.495 37.7933Z" fill="#F5F5F5"/>
<path d="M186.086 436.572C190.946 435.425 193.957 430.554 192.809 425.694C191.662 420.834 186.792 417.823 181.932 418.971C177.071 420.118 174.061 424.988 175.208 429.848C176.355 434.709 181.225 437.719 186.086 436.572Z" fill="#F0F0F0"/>
<path d="M180.899 422.481C179.046 422.477 177.241 423.063 175.744 424.154C174.979 425.908 174.792 427.859 175.208 429.727C175.624 431.594 176.623 433.281 178.06 434.544C179.497 435.808 181.298 436.582 183.203 436.755C185.109 436.929 187.02 436.492 188.662 435.509C189.388 434.165 189.753 432.656 189.721 431.128C189.689 429.601 189.261 428.108 188.478 426.796C187.695 425.484 186.586 424.397 185.257 423.643C183.928 422.889 182.427 422.492 180.899 422.493V422.481Z" fill="#E6E6E6"/>
<g opacity="0.3">
<path d="M176.47 95.8858C176.47 96.3414 176.335 96.7866 176.081 97.1652C175.828 97.5438 175.468 97.8387 175.047 98.0124C174.626 98.1862 174.163 98.231 173.716 98.1413C173.27 98.0515 172.86 97.8312 172.538 97.5082C172.217 97.1852 171.999 96.7741 171.912 96.3271C171.824 95.88 171.872 95.4171 172.048 94.9969C172.224 94.5767 172.52 94.2183 172.9 93.967C173.28 93.7157 173.726 93.5828 174.182 93.5853C174.483 93.5853 174.782 93.6449 175.06 93.7606C175.339 93.8764 175.592 94.046 175.804 94.2598C176.017 94.4736 176.185 94.7273 176.299 95.0064C176.414 95.2854 176.472 95.5843 176.47 95.8858Z" fill="#8B3DFF"/>
<path d="M18.9608 184.255C19.8577 184.255 20.5848 183.528 20.5848 182.631C20.5848 181.734 19.8577 181.007 18.9608 181.007C18.064 181.007 17.3369 181.734 17.3369 182.631C17.3369 183.528 18.064 184.255 18.9608 184.255Z" fill="#8B3DFF"/>
<path d="M287.254 421.41C288.538 421.41 289.579 420.369 289.579 419.085C289.579 417.801 288.538 416.76 287.254 416.76C285.97 416.76 284.929 417.801 284.929 419.085C284.929 420.369 285.97 421.41 287.254 421.41Z" fill="#8B3DFF"/>
<path d="M343.169 326.804C344.066 326.804 344.793 326.077 344.793 325.18C344.793 324.283 344.066 323.556 343.169 323.556C342.272 323.556 341.545 324.283 341.545 325.18C341.545 326.077 342.272 326.804 343.169 326.804Z" fill="#8B3DFF"/>
<path d="M451.025 34.3732C451.025 34.6944 450.93 35.0084 450.752 35.2754C450.573 35.5425 450.319 35.7506 450.023 35.8735C449.726 35.9965 449.399 36.0286 449.084 35.966C448.769 35.9033 448.48 35.7486 448.253 35.5215C448.026 35.2944 447.871 35.0051 447.809 34.69C447.746 34.375 447.778 34.0485 447.901 33.7518C448.024 33.455 448.232 33.2014 448.499 33.023C448.766 32.8445 449.08 32.7493 449.401 32.7493C449.832 32.7493 450.245 32.9204 450.55 33.2249C450.854 33.5295 451.025 33.9425 451.025 34.3732Z" fill="#8B3DFF"/>
<path d="M141.715 1.62393C141.715 1.94512 141.62 2.25909 141.442 2.52614C141.263 2.79319 141.01 3.00134 140.713 3.12425C140.416 3.24716 140.09 3.27932 139.775 3.21666C139.46 3.15401 139.17 2.99934 138.943 2.77222C138.716 2.54511 138.561 2.25576 138.499 1.94075C138.436 1.62574 138.468 1.29921 138.591 1.00248C138.714 0.705745 138.922 0.452119 139.189 0.273679C139.456 0.0952392 139.77 0 140.091 0C140.521 0.00321885 140.932 0.175345 141.236 0.479197C141.54 0.783048 141.712 1.19423 141.715 1.62393Z" fill="#8B3DFF"/>
<path d="M270.83 86.8312C271.727 86.8312 272.454 86.1041 272.454 85.2073C272.454 84.3104 271.727 83.5833 270.83 83.5833C269.933 83.5833 269.206 84.3104 269.206 85.2073C269.206 86.1041 269.933 86.8312 270.83 86.8312Z" fill="#8B3DFF"/>
</g>
</svg>
