<svg xmlns="http://www.w3.org/2000/svg" width="205.023" height="1097.1" viewBox="0 0 205.023 1097.1"><circle cx="12.95" cy="12.95" r="12.95" transform="translate(0.5 0.5)" fill="#efd8ec"/><path d="M13.45,1A12.45,12.45,0,1,1,1,13.45,12.451,12.451,0,0,1,13.45,1m0-1A13.45,13.45,0,1,0,26.9,13.45,13.461,13.461,0,0,0,13.45,0Z" fill="#333"/><g transform="translate(117.677 190.614)"><path d="M122.88,140.81a12.95,12.95,0,1,1,12.95-12.95,12.966,12.966,0,0,1-12.95,12.95Z" transform="translate(-109.43 -114.42)" fill="#f4c8c6"/><path d="M122.88,115.42a12.45,12.45,0,1,1-12.45,12.45,12.451,12.451,0,0,1,12.45-12.45m0-1a13.45,13.45,0,1,0,13.45,13.45,13.467,13.467,0,0,0-13.45-13.45Z" transform="translate(-109.43 -114.42)" fill="#333"/></g><g transform="translate(48.37 515.251)"><path d="M58.43,335.68a12.95,12.95,0,1,1,12.95-12.95,12.966,12.966,0,0,1-12.95,12.95Z" transform="translate(-44.98 -309.29)" fill="#f8d082"/><path d="M58.43,310.29a12.45,12.45,0,1,1-12.45,12.45,12.451,12.451,0,0,1,12.45-12.45m0-1a13.45,13.45,0,1,0,13.45,13.45,13.467,13.467,0,0,0-13.45-13.45Z" transform="translate(-44.98 -309.29)" fill="#333"/></g><g transform="translate(136.614 835.106)"><circle cx="12.95" cy="12.95" r="12.95" transform="translate(0.5 0.49)" fill="#e6f2e4"/><path d="M140.49,502.29a12.45,12.45,0,1,1-12.45,12.45,12.451,12.451,0,0,1,12.45-12.45m0-1a13.45,13.45,0,1,0,13.45,13.45,13.467,13.467,0,0,0-13.45-13.45Z" transform="translate(-127.04 -501.29)" fill="#333"/></g><g transform="translate(106.343 1070.2)"><circle cx="12.95" cy="12.95" r="12.95" transform="translate(0.5 0.49)" fill="#efd8ec"/><path d="M112.34,643.41a12.45,12.45,0,1,1-12.45,12.45,12.451,12.451,0,0,1,12.45-12.45m0-1a13.45,13.45,0,1,0,13.45,13.45,13.467,13.467,0,0,0-13.45-13.45Z" transform="translate(-98.89 -642.41)" fill="#333"/></g><g transform="translate(178.123 419.361)"><path d="M179.09,278.12a12.95,12.95,0,1,1,12.95-12.95A12.966,12.966,0,0,1,179.09,278.12Z" transform="translate(-165.64 -251.73)" fill="#dde9f2"/><path d="M179.09,252.73a12.45,12.45,0,1,1-12.45,12.45,12.451,12.451,0,0,1,12.45-12.45m0-1a13.45,13.45,0,1,0,13.45,13.45,13.467,13.467,0,0,0-13.45-13.45Z" transform="translate(-165.64 -251.73)" fill="#333"/></g><g transform="translate(38.794 274.562)"><path d="M85.46,232.69a.478.478,0,0,1-.39-.19L35.98,171.66a.5.5,0,0,1,.07-.7l13.04-10.53a.455.455,0,0,1,.31-.11.478.478,0,0,1,.39.19l49.09,60.84a.542.542,0,0,1,.11.37.52.52,0,0,1-.18.34L85.76,232.59a.455.455,0,0,1-.31.11Z" transform="translate(-35.357 -159.83)" fill="#cae1c4"/><path d="M49.41,160.83,98.5,221.67,85.45,232.2,36.36,171.36l13.05-10.53m0-1a1.026,1.026,0,0,0-.63.22L35.73,170.58a1,1,0,0,0-.15,1.41l49.09,60.84a1.009,1.009,0,0,0,.67.37h.11a1.026,1.026,0,0,0,.63-.22l13.05-10.53a1,1,0,0,0,.15-1.41L50.19,160.2a1.009,1.009,0,0,0-.67-.37h-.11Z" transform="translate(-35.357 -159.83)" fill="#333"/></g><g transform="translate(63.461 5.41)"><path d="M67.98,65.86a.5.5,0,0,1-.32-.2L57.95,52a.5.5,0,0,1,.12-.7L121.77,6a.521.521,0,0,1,.29-.09h.08a.5.5,0,0,1,.32.2l9.71,13.66a.5.5,0,0,1-.12.7L68.34,65.76a.521.521,0,0,1-.29.09h-.08Z" transform="translate(-57.348 -5.41)" fill="#dde9f2"/><path d="M122.06,6.41l9.71,13.66L68.06,65.36,58.35,51.7,122.06,6.41m0-1a.981.981,0,0,0-.58.19L57.77,50.89a1.01,1.01,0,0,0-.41.65,1.052,1.052,0,0,0,.17.75l9.71,13.66a1,1,0,0,0,.82.42.981.981,0,0,0,.58-.19l63.71-45.29a1.01,1.01,0,0,0,.41-.65,1.052,1.052,0,0,0-.17-.75L122.88,5.83a1,1,0,0,0-.82-.42h0Z" transform="translate(-57.348 -5.41)" fill="#333"/></g><g transform="translate(104.803 648.286)"><path d="M111.07,452.92a.53.53,0,0,1-.27-.08l-14.16-8.98a.5.5,0,0,1-.15-.69l41.86-66.02a.5.5,0,0,1,.31-.22c.04,0,.07-.01.11-.01a.53.53,0,0,1,.27.08l14.16,8.98a.5.5,0,0,1,.15.69l-41.86,66.02a.5.5,0,0,1-.31.22c-.04,0-.07.01-.11.01Z" transform="translate(-95.902 -376.42)" fill="#efd8ec"/><path d="M138.77,377.42l14.16,8.98-41.86,66.02-14.16-8.98,41.86-66.02m0-1a.821.821,0,0,0-.22.02,1.05,1.05,0,0,0-.63.44L96.06,442.9a.994.994,0,0,0,.31,1.38l14.16,8.98a1.032,1.032,0,0,0,.54.16.821.821,0,0,0,.22-.02,1.05,1.05,0,0,0,.63-.44l41.86-66.02a.994.994,0,0,0-.31-1.38l-14.16-8.98a1.032,1.032,0,0,0-.54-.16Z" transform="translate(-95.902 -376.42)" fill="#333"/></g><g transform="translate(42.315 956.27)"><path d="M94.71,597.12a.469.469,0,0,1-.35-.15L39.08,541.69a.509.509,0,0,1-.15-.35.469.469,0,0,1,.15-.35l11.85-11.85a.5.5,0,0,1,.35-.15.485.485,0,0,1,.35.15l55.28,55.28a.5.5,0,0,1,0,.71L95.06,596.98a.509.509,0,0,1-.35.15Z" transform="translate(-38.428 -528.48)" fill="#f7ba84"/><path d="M51.28,529.49l55.28,55.28L94.71,596.62,39.43,541.34l11.85-11.85m0-1a1.024,1.024,0,0,0-.71.29L38.72,540.63a1,1,0,0,0,0,1.41L94,597.32a.982.982,0,0,0,.71.29,1.024,1.024,0,0,0,.71-.29l11.85-11.85a.99.99,0,0,0,.29-.71,1.033,1.033,0,0,0-.29-.71L51.99,528.77a.982.982,0,0,0-.71-.29h0Z" transform="translate(-38.428 -528.48)" fill="#333"/></g></svg>