<svg xml:space="preserve" viewBox="0 0 100 100" y="0px" x="0px" xmlns:xlink="http://www.w3.org/1999/xlink" xmlns="http://www.w3.org/2000/svg" id="圖層_1" version="1.1" preserveAspectRatio="xMidYMid" width="200" height="200" style="margin-top:0px;margin-right:0px;margin-bottom:0px;margin-left:0px;display:block;shape-rendering:auto;background-position-x:0%;background-position-y:0%;background-size:auto;background-origin:padding-box;background-clip:border-box;background:scroll rgb(255, 255, 255) none  repeat;width:200px;height:200px;;animation:none"><g class="ldl-scale" style="transform-origin:50px 50px;transform:matrix(0.8, 0, 0, 0.8, 0, 0);;animation:none"><g class="ldl-ani"><g class="ldl-layer"><g class="ldl-ani" style="transform-origin:50px 50px;transform:matrix(1.00333, 0, 0, 1.00333, 0, 0);animation-duration:1s;animation-timing-function:linear;animation-delay:-0.666667s;animation-iteration-count:infinite;animation-direction:normal;animation-fill-mode:forwards;animation-play-state:paused;animation-name:animate;animation-timeline:auto;animation-range-start:normal;animation-range-end:normal;transform-box:view-box;;animation:none"><path d="M67.5,13.2c-6.9,0-13.2,3-17.5,7.7c-4.3-4.8-10.6-7.7-17.5-7.7c-13.1,0-23.7,10.6-23.7,23.7
	c0,16.6,9.4,24.5,22.5,35.5c4.3,3.6,9.1,7.7,14.4,12.7l4.2,4l4.2-4c5.3-5,10.2-9.1,14.4-12.7c13.1-11,22.5-18.9,22.5-35.5
	C91.2,23.9,80.6,13.2,67.5,13.2z M70.5,62.7c-1.8,1.6-3.8,3.3-6,5.1c-4.3,3.6-9.2,7.7-14.5,12.8C28.5,60.4,15,55.3,15,36.9
	c0-9.7,7.8-17.5,17.5-17.5S50,27.3,50,36.9v0c0-0.6,0-1.2,0.1-1.8c0.2-1.8,0.6-3.5,1.3-5c0.3-0.7,0.7-1.4,1.1-2.1
	c1.6-2.7,3.9-5,6.7-6.5c2.5-1.3,5.3-2.1,8.3-2.1s5.9,0.8,8.3,2.1c2.8,1.5,5.1,3.8,6.7,6.5c0.4,0.7,0.8,1.4,1.1,2.1
	c0.7,1.6,1.1,3.3,1.3,5c0.1,0.6,0.1,1.2,0.1,1.8v0c0,3.4-0.5,6.4-1.4,9.1c-0.2,0.4-0.3,0.9-0.5,1.3c-0.9,2.2-2.1,4.2-3.5,6.1
	c-0.3,0.4-0.6,0.8-0.9,1.2c-0.9,1.2-2,2.3-3.1,3.4C74.1,59.6,72.4,61.1,70.5,62.7z" fill="#E0E0E0" style="stroke-width:1px;fill:rgb(224, 224, 224);;animation:none"></path></g></g>


<g class="ldl-layer"><g class="ldl-ani"><g><g class="ldl-layer"><g class="ldl-ani" style="transform-origin:50px 50px;transform:matrix(0.935119, 0, 0, 0.935119, 0, 0);animation-duration:1s;animation-timing-function:linear;animation-delay:-0.833333s;animation-iteration-count:infinite;animation-direction:normal;animation-fill-mode:forwards;animation-play-state:paused;animation-name:animate;animation-timeline:auto;animation-range-start:normal;animation-range-end:normal;transform-box:view-box;;animation:none"><path d="M50,36.9c0-9.7-7.8-17.5-17.5-17.5S15,27.3,15,36.9c0,18.4,13.5,23.5,35,43.7c5.4-5,10.3-9.2,14.5-12.8
		c-4.3,3.6-9.2,7.7-14.5,12.8V36.9z" fill="#E15B64" style="stroke-width:1px;fill:rgb(225, 91, 100);;animation:none"></path></g></g>

	
<g class="ldl-layer"><g class="ldl-ani" style="transform-origin:50px 50px;transform:matrix(0.91, 0, 0, 0.91, 0, 0);animation-duration:1s;animation-timing-function:linear;animation-delay:-1s;animation-iteration-count:infinite;animation-direction:normal;animation-fill-mode:forwards;animation-play-state:paused;animation-name:animate;animation-timeline:auto;animation-range-start:normal;animation-range-end:normal;transform-box:view-box;;animation:none"><path d="M84.9,35.1c-0.2-1.8-0.6-3.5-1.3-5c-0.3-0.7-0.7-1.4-1.1-2.1c-1.6-2.7-3.9-5-6.7-6.5
		c-2.5-1.3-5.3-2.1-8.3-2.1s-5.9,0.8-8.3,2.1c-2.8,1.5-5.1,3.8-6.7,6.5c-0.4,0.7-0.8,1.4-1.1,2.1c-0.7,1.6-1.1,3.3-1.3,5
		C50,35.7,50,36.3,50,36.9v43.7c5.4-5,10.3-9.2,14.5-12.8c2.1-1.8,4.1-3.5,6-5.1c1.8-1.6,3.5-3.1,5-4.7c1.1-1.1,2.2-2.3,3.1-3.4
		c0.3-0.4,0.6-0.8,0.9-1.2c1.5-1.9,2.6-3.9,3.5-6.1c0.2-0.4,0.3-0.9,0.5-1.3c0.9-2.7,1.4-5.7,1.4-9.1C85,36.3,85,35.7,84.9,35.1z" fill="#C1272D" style="stroke-width:1px;fill:rgb(193, 39, 45);;animation:none"></path></g></g></g></g></g></g></g>
<STYLE type="text/css">@keyframes animate { 0.00% {transform: translate(0.00px,0.00px) rotate(0.00deg) scale(0.91, 0.91) skew(0deg, 0.00deg) ;opacity: 1.00;}4.00% {transform: translate(0.00px,0.00px) rotate(0.00deg) scale(0.91, 0.91) ;}8.00% {animation-timing-function: cubic-bezier(0.69,0.60,0.35,0.27);transform: translate(0.00px,0.00px) rotate(0.00deg) scale(0.91, 0.91) ;}14.00% {transform: translate(0.00px,0.00px) rotate(0.00deg) scale(0.93, 0.93) ;}18.00% {transform: translate(0.00px,0.00px) rotate(0.00deg) scale(0.94, 0.94) ;}22.00% {animation-timing-function: cubic-bezier(0.67,0.66,0.34,0.33);transform: translate(0.00px,0.00px) rotate(0.00deg) scale(0.96, 0.96) ;}26.00% {transform: translate(0.00px,0.00px) rotate(0.00deg) scale(0.97, 0.97) ;}30.00% {transform: translate(0.00px,0.00px) rotate(0.00deg) scale(0.99, 0.99) ;}34.00% {animation-timing-function: cubic-bezier(0.65,0.71,0.32,0.38);transform: translate(0.00px,0.00px) rotate(0.00deg) scale(1.01, 1.01) ;}40.00% {animation-timing-function: cubic-bezier(0.64,0.74,0.31,0.41);transform: translate(0.00px,0.00px) rotate(0.00deg) scale(1.02, 1.02) ;}46.00% {animation-timing-function: cubic-bezier(0.60,0.91,0.23,0.63);transform: translate(0.00px,0.00px) rotate(0.00deg) scale(1.03, 1.03) ;}50.00% {transform: translate(0.00px,0.00px) rotate(0.00deg) scale(1.03, 1.03) ;}54.00% {transform: translate(0.00px,0.00px) rotate(0.00deg) scale(1.03, 1.03) ;}58.00% {animation-timing-function: cubic-bezier(0.69,0.60,0.35,0.27);transform: translate(0.00px,0.00px) rotate(0.00deg) scale(1.03, 1.03) ;}64.00% {transform: translate(0.00px,0.00px) rotate(0.00deg) scale(1.01, 1.01) ;}68.00% {transform: translate(0.00px,0.00px) rotate(0.00deg) scale(1.00, 1.00) ;}72.00% {animation-timing-function: cubic-bezier(0.67,0.66,0.34,0.33);transform: translate(0.00px,0.00px) rotate(0.00deg) scale(0.98, 0.98) ;}76.00% {animation-timing-function: cubic-bezier(0.66,0.68,0.33,0.35);transform: translate(0.00px,0.00px) rotate(0.00deg) scale(0.97, 0.97) ;}82.00% {animation-timing-function: cubic-bezier(0.65,0.71,0.32,0.38);transform: translate(0.00px,0.00px) rotate(0.00deg) scale(0.94, 0.94) ;}88.00% {animation-timing-function: cubic-bezier(0.65,0.73,0.31,0.40);transform: translate(0.00px,0.00px) rotate(0.00deg) scale(0.92, 0.92) ;}94.00% {animation-timing-function: cubic-bezier(0.63,0.80,0.28,0.48);transform: translate(0.00px,0.00px) rotate(0.00deg) scale(0.91, 0.91) ;}100.00% {animation-timing-function: cubic-bezier(0.63,0.80,0.28,0.48);transform: translate(0.00px,0.00px) rotate(0.00deg) scale(0.91, 0.91) ;} }</STYLE><!-- [ldio] generated by https://loading.io --></svg>